<svg version="1.2" xmlns="http://www.w3.org/2000/svg" viewBox="0 0 1200 900.0000000000001" width="1200" height="901">
	<style>
		.s0 { fill: none;stroke: #231f20;stroke-linecap: round;stroke-linejoin: round;stroke-width: 9.3 } 
		.s1 { fill: #231f20 } 
	</style>
	<g id="Graphic Elements">
		<g id="&lt;Group&gt;">
			<g id="&lt;Group&gt;">
				<path id="&lt;Path&gt;" class="s0" d="m410.06 888.94c-244.8-38.7-327.72-343.67-252.78-550 26.67-73.42 76.71-135.97 138.25-183.53"/>
				<g id="&lt;Group&gt;">
					<path id="&lt;Path&gt;" class="s1" d="m315.23 859.57c0 0 58.88-94.88-26.88-229.76-3.23 7.21-45.38 125.4 26.88 229.76z"/>
					<path id="&lt;Path&gt;" class="s1" d="m259.07 821.06c0 0-107.92 28.66-211.93-92.71 7.84-0.98 133.18-6.84 211.93 92.71z"/>
					<path id="&lt;Path&gt;" class="s1" d="m164.25 683.8c0 0-110.76-14.15-161.33-165.78 7.64 2.05 125.93 43.88 161.33 165.78z"/>
					<path id="&lt;Path&gt;" class="s1" d="m128.6 531.53c0 0-100.34-49-99.5-208.83 6.57 4.39 105.15 82.02 99.5 208.83z"/>
					<path id="&lt;Path&gt;" class="s1" d="m144.61 370.4c0 0-83.53-74.09-39.89-227.86 5.16 6 79.32 107.21 39.89 227.86z"/>
					<path id="&lt;Path&gt;" class="s1" d="m196.37 255.71c0 0-47.23-96.02 43.44-214.65 2.43 7.17 32.21 123.49-43.44 214.65z"/>
					<path id="&lt;Path&gt;" class="s1" d="m202.63 755.67c0 0 90.91-82.48 45.65-248.16-5.68 6.57-86.5 112.96-45.65 248.16z"/>
					<path id="&lt;Path&gt;" class="s1" d="m136.71 570.83c0 0 95.32-54.05 98.91-215.19-6.83 4.66-98.67 76.61-98.91 215.19z"/>
					<path id="&lt;Path&gt;" class="s1" d="m227.75 242.05c27.32-19.84 58.76-33.52 91.19-42.92-0.07 6.73-1 13.45-2.75 19.94-2.18 8.04-5.6 15.7-9.38 23.12-30.22 59.35-91.61 115.58-158.63 128.76 0.21-7.55 5.32-17.67 7.42-25.08 12.15-42.8 35.89-77.48 72.15-103.82z"/>
					<path id="&lt;Path&gt;" class="s1" d="m302.29 137.99c44.53-35.99 101.6-56.14 158.86-56.08 1.37 18-22.35 34.61-34.77 44.01-28.45 21.52-58.38 36.17-93.17 45.56-21.42 5.78-45.49 10.42-67.72 10.39-0.67 0-1.42-0.05-1.83-0.57-0.59-0.75-0.03-1.83 0.53-2.6 4.4-6.1 10.08-11.14 14.71-17.07 6.9-8.85 14.66-16.57 23.39-23.64z"/>
				</g>
			</g>
			<g id="&lt;Group&gt;">
				<path id="&lt;Path&gt;" class="s0" d="m789.94 888.94c244.8-38.7 327.72-343.67 252.78-550-26.67-73.42-76.71-135.97-138.25-183.53"/>
				<g id="&lt;Group&gt;">
					<path id="&lt;Path&gt;" class="s1" d="m884.77 859.57c0 0-58.88-94.88 26.88-229.76 3.23 7.21 45.38 125.4-26.88 229.76z"/>
					<path id="&lt;Path&gt;" class="s1" d="m940.93 821.06c0 0 107.92 28.66 211.93-92.71-7.84-0.98-133.18-6.84-211.93 92.71z"/>
					<path id="&lt;Path&gt;" class="s1" d="m1035.75 683.8c0 0 110.76-14.15 161.33-165.78-7.64 2.05-125.93 43.88-161.33 165.78z"/>
					<path id="&lt;Path&gt;" class="s1" d="m1071.4 531.53c0 0 100.34-49 99.5-208.83-6.57 4.39-105.15 82.02-99.5 208.83z"/>
					<path id="&lt;Path&gt;" class="s1" d="m1055.39 370.4c0 0 83.53-74.09 39.89-227.86-5.16 6-79.32 107.21-39.89 227.86z"/>
					<path id="&lt;Path&gt;" class="s1" d="m1003.63 255.71c0 0 47.23-96.02-43.44-214.65-2.43 7.17-32.21 123.49 43.44 214.65z"/>
					<path id="&lt;Path&gt;" class="s1" d="m997.37 755.67c0 0-90.91-82.48-45.65-248.16 5.68 6.57 86.5 112.96 45.65 248.16z"/>
					<path id="&lt;Path&gt;" class="s1" d="m1063.29 570.83c0 0-95.32-54.05-98.91-215.19 6.83 4.66 98.67 76.61 98.91 215.19z"/>
					<path id="&lt;Path&gt;" class="s1" d="m972.25 242.05c-27.32-19.84-58.76-33.52-91.19-42.92 0.07 6.73 1 13.45 2.75 19.94 2.18 8.04 5.6 15.7 9.38 23.12 30.22 59.35 91.61 115.58 158.63 128.76-0.21-7.55-5.32-17.67-7.42-25.08-12.15-42.8-35.89-77.48-72.15-103.82z"/>
					<path id="&lt;Path&gt;" class="s1" d="m897.71 137.99c-44.53-35.99-101.6-56.14-158.86-56.08-1.37 18 22.35 34.61 34.77 44.01 28.45 21.52 58.38 36.17 93.17 45.56 21.42 5.78 45.49 10.42 67.72 10.39 0.67 0 1.42-0.05 1.83-0.57 0.59-0.75 0.03-1.83-0.53-2.6-4.4-6.1-10.08-11.14-14.71-17.07-6.9-8.85-14.66-16.57-23.39-23.64z"/>
				</g>
			</g>
		</g>
	</g>
</svg>